<?xml version="1.0" ?>
<!DOCTYPE svg  PUBLIC '-//W3C//DTD SVG 1.1//EN'  'http://www.w3.org/Graphics/SVG/1.1/DTD/svg11.dtd'>
<!-- Uploaded to: SVG Repo, www.svgrepo.com, Generator: SVG Repo Mixer Tools -->
<svg fill="#000000" width="800px" height="800px" viewBox="0 0 6000 6000" style="fill-rule:evenodd;clip-rule:evenodd;stroke-linejoin:round;stroke-miterlimit:2;" version="1.1" xml:space="preserve" xmlns="http://www.w3.org/2000/svg" xmlns:serif="http://www.serif.com/" xmlns:xlink="http://www.w3.org/1999/xlink">
<g transform="matrix(7.51266,0,0,7.51266,-8425.66,-4154.68)">
<path d="M1532.13,682.145C1532.01,682.055 1531.89,681.969 1531.77,681.886C1527.24,678.868 1522.29,679.486 1517.28,681.538C1513.71,683.001 1510.1,685.192 1506.62,687.18C1503.27,689.097 1500.04,690.83 1497.06,691.444C1495.78,691.71 1494.31,691.593 1492.85,691.229C1493.85,688.034 1493.08,684.312 1490.65,682.668C1489.51,681.899 1488,681.545 1486.12,681.916C1483.92,682.346 1482.89,683.295 1482.56,684.311C1482.23,685.351 1482.61,686.63 1483.64,687.886C1484.91,689.43 1487.18,691.012 1489.72,692.075C1489.97,692.179 1490.21,692.278 1490.47,692.371C1488.31,697.356 1485.09,701.424 1482.47,705.736C1479.51,710.61 1477.3,715.782 1477.99,722.776C1478.07,723.6 1478.19,724.394 1478.36,725.159C1477.78,726.042 1477.21,726.894 1476.64,727.706C1474.93,730.105 1473.21,732.146 1471.42,733.566C1469.77,734.873 1468.08,735.646 1466.3,735.598C1465.67,734.613 1465.07,733.61 1464.5,732.588C1463.28,730.385 1461.19,726.304 1459.65,721.881C1460.07,716.188 1461.46,710.284 1461.77,707.205C1461.88,706.126 1461.83,705.331 1461.66,704.902C1461.5,704.476 1461.23,704.235 1460.92,704.116C1460.58,703.981 1460.07,703.971 1459.44,704.415C1456.12,706.774 1455.46,711.102 1456.22,715.868C1456.55,717.929 1457.13,720.07 1457.84,722.145C1457.65,724.894 1457.69,727.588 1458.17,729.901C1458.99,733.906 1461.07,736.828 1465.28,737.327C1472.04,747.499 1482.07,755.856 1491.91,764.278C1496.17,767.931 1500.4,771.595 1504.3,775.433C1504.21,775.754 1504.12,776.075 1504.04,776.396C1502.25,782.899 1500.25,789.378 1501.89,796.017C1504.31,805.871 1512.89,810.86 1522.14,815.542C1523.8,816.381 1525.48,817.21 1527.15,818.061C1534.81,846.545 1532.06,871.022 1536.13,903.611C1538.26,920.602 1543.84,936.875 1546.99,953.629C1543.72,949.748 1540.08,946.22 1536.36,942.762C1529.19,936.09 1521.68,929.681 1515.94,921.37C1514.31,916.267 1512.89,911.157 1511.86,906.185C1511.22,903.073 1510.73,900.015 1510.43,897.05C1511.77,891.516 1514.33,886.094 1516.77,881.099C1517.1,880.415 1519.94,874.969 1521.49,870.923C1522.23,869.011 1522.64,867.369 1522.53,866.558C1522.44,865.91 1522.1,865.54 1521.67,865.375C1521.27,865.225 1520.56,865.258 1519.59,865.936C1509.95,872.689 1507.4,883.998 1508.63,897.024C1507.24,903.055 1507.24,909.21 1510.15,915.112C1511.4,917.629 1512.8,919.976 1514.32,922.191C1520.82,942.379 1530.59,962.397 1532.74,973.276C1533.63,977.776 1533.64,982.12 1533.02,986.341C1527.87,979.812 1522.01,974.906 1515.18,972.936C1504.94,969.978 1492.45,973.559 1476.96,988.459C1472.35,988.129 1467.96,989.02 1464.43,991.772C1460.93,994.504 1459.34,997.416 1459.06,1000.39C1458.78,1003.34 1459.81,1006.39 1461.7,1009.45C1462.49,1010.73 1463.43,1012.02 1464.48,1013.31C1463.92,1019.12 1464.71,1025.13 1466.98,1031.05C1468.27,1034.41 1473.14,1041.95 1478.48,1045.53C1480.76,1047.06 1483.14,1047.87 1485.36,1047.48C1486.89,1047.22 1488.37,1046.41 1489.72,1044.84C1491.93,1042.26 1491.36,1039.11 1488.95,1035.6C1485.73,1030.92 1479.18,1025.47 1473.16,1019.79C1470.71,1017.47 1468.35,1015.12 1466.36,1012.76C1467.34,1004.49 1471.22,996.691 1477.62,990.323C1478.24,990.386 1478.85,990.472 1479.47,990.577C1487.35,991.918 1495.49,996.492 1500.36,1000.51C1503.08,1002.75 1508.99,1011.52 1515.76,1022.6C1511.21,1029.67 1506.79,1036.68 1503.88,1043.85C1493.12,1070.32 1496.38,1101.35 1501.23,1128.78C1502.42,1135.5 1504.65,1149.26 1509.12,1160.21C1512.2,1167.74 1516.37,1173.91 1521.86,1175.84C1523.29,1176.35 1524.52,1176.32 1525.56,1175.92C1527.06,1175.34 1528.22,1173.94 1529.04,1171.98C1531.86,1165.25 1530.8,1151.55 1530.67,1148.45C1530.07,1133.86 1527.68,1100.5 1531.9,1077.09C1533.1,1070.47 1534.81,1064.65 1537.26,1060.34C1543.08,1071.33 1547.39,1080.37 1548.02,1083.63C1550.25,1095.11 1547.07,1105.34 1543.28,1115.44C1539.4,1125.78 1534.87,1135.97 1534.49,1147.12C1534.46,1148.07 1534.44,1149.17 1534.69,1150.12C1535,1151.28 1535.68,1152.23 1537.03,1152.64C1540.02,1153.56 1542.57,1151.94 1544.56,1149.24C1547.24,1145.59 1548.89,1139.98 1549.42,1137.47C1551.54,1127.45 1556.81,1111.12 1560.22,1096.59C1562.52,1086.77 1563.96,1077.76 1563.08,1072C1562.37,1067.4 1559.77,1060.44 1555.9,1055.84C1553.45,1052.94 1550.5,1050.99 1547.22,1050.96C1545.03,1050.94 1542.66,1051.78 1540.19,1053.85C1539.19,1054.68 1538.27,1055.69 1537.41,1056.84C1532.62,1047.88 1527,1037.92 1521.59,1028.8C1520.34,1026.69 1519.1,1024.62 1517.88,1022.62C1520.45,1018.62 1523.05,1014.61 1525.42,1010.53C1529.16,1004.1 1532.33,997.529 1534,990.666C1535.63,993.007 1537.19,995.509 1538.68,998.118C1547.45,1013.47 1553.91,1032.52 1560.07,1044.68C1564.19,1052.82 1570.03,1059.89 1574.93,1067.39C1579.73,1074.72 1583.61,1082.46 1583.95,1092.09C1584.37,1104.39 1580,1115.83 1573.47,1126.81C1566.87,1137.91 1558.07,1148.54 1549.69,1159.1C1541.24,1169.76 1533.23,1180.35 1528.29,1191.27C1523.29,1202.33 1521.43,1213.73 1525.37,1225.87C1525.52,1226.34 1526.03,1226.6 1526.5,1226.45C1526.97,1226.29 1527.23,1225.79 1527.08,1225.31C1523.29,1213.62 1525.12,1202.65 1529.93,1192.01C1534.81,1181.21 1542.75,1170.76 1551.1,1160.22C1559.53,1149.6 1568.38,1138.9 1575.02,1127.73C1581.73,1116.44 1586.18,1104.67 1585.75,1092.03C1585.4,1082.04 1581.41,1074 1576.44,1066.4C1571.58,1058.96 1565.77,1051.95 1561.67,1043.87C1555.5,1031.68 1549.03,1012.6 1540.24,997.225C1538.43,994.065 1536.53,991.062 1534.51,988.302C1535.44,983.35 1535.56,978.242 1534.51,972.928C1532.53,962.922 1524.11,945.189 1517.71,926.697C1522.96,933.121 1529.15,938.517 1535.14,944.08C1539.59,948.216 1543.92,952.446 1547.64,957.291C1547.98,959.391 1548.28,961.501 1548.53,963.623C1549.22,969.601 1549.88,1000.59 1552.79,1013.2C1553.26,1015.2 1553.79,1016.76 1554.36,1017.73C1554.9,1018.63 1555.54,1019.09 1556.15,1019.2C1557.5,1019.42 1558.59,1018.89 1559.44,1017.71C1560.45,1016.31 1561.1,1013.83 1561.41,1010.69C1562.58,999.183 1559.58,978.571 1558.37,974.336C1556.37,967.382 1553.19,961.641 1549.34,956.56C1546.34,938.691 1540.17,921.445 1537.92,903.387C1533.91,871.307 1536.45,847.055 1529.3,819.175C1535.73,822.583 1541.71,826.505 1545.12,832.743C1550.86,843.259 1550.78,853.202 1549.46,863.206C1548.11,873.448 1545.47,883.756 1546.18,894.784C1546.92,906.229 1550.63,916.911 1553.9,927.656C1557.12,938.226 1559.93,948.857 1558.94,960.371C1558.9,960.866 1559.26,961.302 1559.76,961.345C1560.25,961.388 1560.69,961.02 1560.73,960.526C1561.75,948.775 1558.91,937.919 1555.62,927.132C1552.39,916.519 1548.71,905.972 1547.98,894.668C1547.28,883.762 1549.9,873.57 1551.24,863.442C1552.61,853.075 1552.65,842.777 1546.7,831.88C1542.87,824.869 1535.95,820.612 1528.68,816.835C1526.71,809.667 1524.09,802.241 1520.53,794.367C1517.25,787.099 1512.17,780.789 1506.3,774.899C1507.82,769.007 1508.78,763.076 1506.35,756.965C1503.45,749.646 1497.11,745.017 1491.25,740.136C1486.39,736.084 1481.87,731.851 1480.28,725.486C1483.33,720.667 1486.33,715.031 1489.44,709.984C1492.04,705.761 1494.71,701.955 1497.56,699.446C1499.35,697.87 1501.21,696.813 1503.17,696.559C1506.5,696.13 1510.04,698.01 1514.07,703.113C1517.63,707.629 1518.95,712.391 1519.02,717.305C1518.19,718.458 1517.4,719.614 1516.67,720.762C1513.22,726.172 1510.99,731.43 1510.58,735.527C1510.18,739.547 1510.93,743.531 1512.32,747.452C1511.19,752.597 1510.65,757.721 1511.57,762.738C1512.15,765.961 1513.93,772.969 1516.89,778.039C1519.01,781.674 1521.77,784.275 1525.02,784.23C1526.12,784.215 1526.93,783.876 1527.53,783.349C1528.37,782.598 1528.77,781.41 1528.82,780.011C1528.92,777.065 1527.45,773.116 1526.83,771.705C1524.35,766.091 1520.39,760.167 1517.21,754.039C1516.05,751.816 1515,749.566 1514.16,747.295C1515.32,742.2 1517.05,737.083 1518.45,732.029C1519.77,727.242 1520.79,722.512 1520.82,717.903C1525.63,711.344 1532.01,704.906 1538.68,700.475C1543.93,696.995 1549.35,694.731 1554.33,694.72C1556.28,700.512 1557.4,707.261 1557.94,714.374C1558.88,726.845 1558.03,740.434 1556.67,752.051C1550.95,759.903 1544.98,766.924 1541.25,772.142C1539.83,774.117 1533.94,785.218 1534.21,791.415C1534.28,792.96 1534.72,794.229 1535.57,795.091C1536.43,795.964 1537.74,796.467 1539.65,796.324C1544.07,795.992 1547.4,792.852 1549.86,788.603C1553.35,782.553 1555.08,774.27 1555.91,769.586C1556.75,764.915 1557.65,759.109 1558.41,752.688C1563.95,745.044 1569.26,736.633 1572.12,728.337C1576.14,716.693 1575.42,705.273 1564.29,696.351C1561.68,694.253 1558.73,693.195 1555.61,692.984C1554,688.566 1551.89,684.725 1549.18,681.716C1544.19,676.163 1536.57,677.894 1532.13,682.145ZM1516.79,1024.3C1512.47,1031.03 1508.32,1037.71 1505.55,1044.53C1494.91,1070.68 1498.21,1101.35 1503,1128.46C1504.17,1135.11 1506.37,1148.71 1510.79,1159.53C1513.64,1166.51 1517.37,1172.35 1522.46,1174.15C1523.41,1174.48 1524.22,1174.51 1524.91,1174.24C1526.01,1173.82 1526.78,1172.72 1527.38,1171.29C1530.1,1164.78 1529,1151.52 1528.88,1148.52C1528.27,1133.86 1525.89,1100.31 1530.13,1076.77C1531.46,1069.45 1533.44,1063.09 1536.28,1058.5C1531.41,1049.38 1525.61,1039.1 1520.05,1029.72C1518.95,1027.87 1517.86,1026.06 1516.79,1024.3ZM1538.35,1058.6C1544.52,1070.23 1549.13,1079.88 1549.79,1083.29C1552.08,1095.11 1548.87,1105.67 1544.97,1116.07C1541.15,1126.23 1536.66,1136.23 1536.29,1147.18C1536.26,1147.97 1536.22,1148.88 1536.43,1149.66C1536.59,1150.23 1536.89,1150.72 1537.55,1150.92C1539.8,1151.61 1541.62,1150.2 1543.11,1148.17C1545.63,1144.74 1547.16,1139.45 1547.66,1137.1C1549.78,1127.07 1555.06,1110.72 1558.47,1096.18C1560.7,1086.63 1562.15,1077.87 1561.3,1072.27C1560.63,1067.93 1558.18,1061.34 1554.52,1057C1552.45,1054.54 1549.99,1052.79 1547.21,1052.76C1545.37,1052.74 1543.41,1053.5 1541.35,1055.22C1540.25,1056.15 1539.26,1057.28 1538.35,1058.6ZM1466.15,1015.25C1465.92,1020.24 1466.73,1025.36 1468.66,1030.4C1469.88,1033.57 1474.46,1040.67 1479.48,1044.04C1481.34,1045.28 1483.25,1046.02 1485.06,1045.71C1486.22,1045.51 1487.33,1044.86 1488.35,1043.67C1490.05,1041.69 1489.31,1039.31 1487.46,1036.62C1484.3,1032.02 1477.84,1026.68 1471.93,1021.09C1469.89,1019.17 1467.92,1017.22 1466.15,1015.25ZM1532.59,988.723C1527.48,981.875 1521.62,976.668 1514.69,974.666C1505.12,971.904 1493.61,975.323 1479.29,988.725C1479.45,988.749 1479.61,988.775 1479.77,988.802C1487.96,990.198 1496.44,994.943 1501.5,999.119C1504.22,1001.36 1510.09,1009.96 1516.84,1020.93C1519.24,1017.19 1521.65,1013.43 1523.87,1009.62C1527.79,1002.88 1531.1,995.973 1532.59,988.723ZM1549.94,960.503C1550.08,961.474 1550.2,962.445 1550.32,963.418C1551,969.371 1551.65,1000.24 1554.55,1012.79C1554.96,1014.56 1555.4,1015.95 1555.91,1016.81C1556.02,1016.99 1556.12,1017.14 1556.24,1017.26C1556.31,1017.34 1556.37,1017.41 1556.45,1017.42C1557.3,1017.56 1557.88,1016.98 1558.35,1016.04C1558.99,1014.75 1559.39,1012.82 1559.62,1010.51C1560.77,999.216 1557.83,978.989 1556.64,974.833C1555.07,969.381 1552.75,964.699 1549.94,960.503ZM1475.24,990.191C1471.67,990.174 1468.31,991.029 1465.54,993.191C1462.53,995.54 1461.09,998.001 1460.85,1000.56C1460.61,1003.15 1461.57,1005.82 1463.23,1008.5C1463.7,1009.27 1464.24,1010.04 1464.81,1010.81C1466.06,1003.28 1469.62,996.183 1475.24,990.191ZM1509.51,903.492C1509.39,907.133 1510.02,910.77 1511.77,914.315C1511.91,914.609 1512.06,914.9 1512.21,915.188C1511.4,912.281 1510.68,909.393 1510.1,906.549C1509.88,905.523 1509.69,904.503 1509.51,903.492ZM1520.65,867.397L1520.63,867.41C1512.74,872.931 1509.97,881.677 1510.13,891.899C1511.52,887.89 1513.35,883.986 1515.15,880.308C1515.51,879.586 1518.69,873.486 1520.11,869.462C1520.36,868.757 1520.54,867.937 1520.65,867.397ZM1505.76,776.902C1504.06,783.098 1502.08,789.262 1503.63,795.587C1505.93,804.919 1514.19,809.501 1522.95,813.936C1524.13,814.531 1525.32,815.123 1526.5,815.722C1524.61,809.127 1522.14,802.305 1518.89,795.107C1515.83,788.334 1511.17,782.42 1505.76,776.902ZM1556.23,755.638C1551.12,762.46 1546.04,768.538 1542.71,773.19C1541.56,774.796 1537.26,782.756 1536.22,788.7C1535.85,790.815 1535.83,792.656 1536.75,793.72C1537.31,794.359 1538.21,794.627 1539.52,794.529C1543.35,794.24 1546.17,791.396 1548.3,787.703C1551.69,781.841 1553.33,773.808 1554.14,769.27C1554.83,765.408 1555.57,760.764 1556.23,755.638ZM1513.52,750.506C1512.83,754.513 1512.62,758.496 1513.34,762.415C1513.9,765.514 1515.6,772.257 1518.44,777.133C1520.19,780.129 1522.32,782.467 1524.99,782.431C1525.58,782.423 1526.02,782.284 1526.33,782.006C1526.84,781.551 1526.99,780.798 1527.02,779.949C1527.12,777.279 1525.74,773.709 1525.18,772.431C1522.72,766.85 1518.78,760.962 1515.61,754.869C1514.86,753.426 1514.15,751.971 1513.52,750.506ZM1478.98,727.472C1478.1,728.788 1477.2,730.02 1476.3,731.135C1473.5,734.594 1470.56,736.913 1467.46,737.332C1474.11,746.924 1483.69,754.876 1493.08,762.91C1497.11,766.361 1501.1,769.826 1504.82,773.436C1506.1,768.243 1506.82,763.011 1504.68,757.629C1501.89,750.596 1495.73,746.21 1490.1,741.519C1485.35,737.556 1480.96,733.386 1478.98,727.472ZM1556.24,694.832C1558.11,700.609 1559.2,707.249 1559.73,714.238C1560.6,725.693 1559.96,738.084 1558.81,749.056C1563.57,742.261 1567.93,734.965 1570.42,727.749C1574.18,716.839 1573.6,706.116 1563.17,697.756C1561.06,696.063 1558.72,695.135 1556.24,694.832ZM1518.89,720.651C1518.65,721.01 1518.42,721.37 1518.19,721.729C1514.92,726.857 1512.76,731.822 1512.37,735.706C1512.09,738.509 1512.42,741.291 1513.14,744.044C1514.23,739.866 1515.57,735.687 1516.71,731.551C1517.72,727.873 1518.57,724.229 1518.89,720.651ZM1459.57,726.609C1459.59,727.05 1459.63,727.484 1459.68,727.909C1460.05,731.285 1461.19,734.075 1463.9,735.139C1463.57,734.584 1463.24,734.025 1462.93,733.46C1462.07,731.909 1460.8,729.459 1459.57,726.609ZM1553.69,692.958C1552.2,689.044 1550.28,685.63 1547.85,682.92C1543.61,678.204 1537.15,679.824 1533.37,683.448C1534,684.339 1534.38,685.376 1534.56,686.462C1535,689.037 1534.31,691.871 1533.41,693.441C1533.08,694.008 1532.72,694.426 1532.38,694.67C1532,694.935 1531.62,695.032 1531.27,695.002C1530.87,694.969 1530.47,694.781 1530.14,694.329C1527.53,690.821 1528.33,686.696 1530.9,683.478C1530.86,683.446 1530.82,683.414 1530.77,683.384C1525.72,680.017 1520.08,681.938 1514.49,684.826C1508.51,687.914 1502.59,692.142 1497.43,693.207C1495.84,693.536 1494.01,693.387 1492.19,692.915C1489.99,698.054 1486.7,702.24 1484.01,706.669C1481.24,711.229 1479.14,716.058 1479.78,722.6C1479.79,722.682 1479.8,722.763 1479.81,722.844C1483.96,716.049 1488.04,708.013 1492.47,702.331C1495.72,698.162 1499.19,695.258 1502.94,694.774C1506.73,694.286 1510.9,696.19 1515.48,701.998C1518.78,706.181 1520.3,710.56 1520.7,715.072C1525.45,708.973 1531.44,703.119 1537.69,698.975C1543.03,695.429 1548.56,693.152 1553.69,692.958ZM1460.03,706.237C1457.65,708.29 1457.39,711.8 1457.99,715.585C1458.09,716.183 1458.21,716.787 1458.34,717.395C1458.7,714.792 1459.15,712.31 1459.5,710.243C1459.77,708.677 1459.98,707.36 1460.02,706.428L1460.03,706.237ZM1532.12,684.843C1530.25,687.325 1529.59,690.408 1531.46,693.084C1531.5,693.048 1531.53,693.008 1531.56,692.971C1531.84,692.623 1532.1,692.104 1532.32,691.488C1532.77,690.243 1533.03,688.614 1532.83,687.064C1532.73,686.281 1532.51,685.516 1532.12,684.843ZM1491.13,690.696C1491.9,688.266 1491.49,685.407 1489.64,684.16C1488.85,683.621 1487.78,683.423 1486.46,683.682C1485.74,683.825 1485.18,684.019 1484.79,684.274C1484.53,684.445 1484.35,684.632 1484.28,684.857C1484.1,685.423 1484.47,686.059 1485.03,686.742C1486.15,688.106 1488.18,689.477 1490.41,690.416C1490.65,690.514 1490.89,690.608 1491.13,690.696Z"/>
</g>
</svg>